<?xml version="1.0" standalone="no"?>
<!DOCTYPE svg PUBLIC "-//W3C//DTD SVG 20010904//EN"
 "http://www.w3.org/TR/2001/REC-SVG-20010904/DTD/svg10.dtd">
<svg version="1.0" xmlns="http://www.w3.org/2000/svg"
 width="592.000000pt" height="592.000000pt" viewBox="0 0 592.000000 592.000000"
 preserveAspectRatio="xMidYMid meet">
<metadata>
Created by potrace 1.14, written by Peter Selinger 2001-2017
</metadata>
<g transform="translate(0.000000,592.000000) scale(0.100000,-0.100000)"
fill="#000000" stroke="none">
<path d="M320 5040 l0 -560 560 0 560 0 0 560 0 560 -560 0 -560 0 0 -560z
m960 0 l0 -400 -400 0 -400 0 0 400 0 400 400 0 400 0 0 -400z"/>
<path d="M640 5040 l0 -240 240 0 240 0 0 240 0 240 -240 0 -240 0 0 -240z"/>
<path d="M1600 5360 l0 -240 160 0 160 0 0 80 0 80 80 0 80 0 0 -80 0 -80 80
0 80 0 0 80 0 80 -80 0 -80 0 0 160 0 160 -80 0 -80 0 0 -80 0 -80 -80 0 -80
0 0 80 0 80 -80 0 -80 0 0 -240z"/>
<path d="M2240 5520 l0 -80 80 0 80 0 0 -80 0 -80 80 0 80 0 0 -240 0 -240
-80 0 -80 0 0 80 0 80 -320 0 -320 0 0 -80 0 -80 -80 0 -80 0 0 -480 0 -480
-80 0 -80 0 0 80 0 80 -240 0 -240 0 0 80 0 80 80 0 80 0 0 80 0 80 -240 0
-240 0 0 -80 0 -80 -80 0 -80 0 0 -400 0 -400 -80 0 -80 0 0 -480 0 -480 80 0
80 0 0 -80 0 -80 -80 0 -80 0 0 -320 0 -320 80 0 80 0 0 240 0 240 80 0 80 0
0 -80 0 -80 80 0 80 0 0 -80 0 -80 -80 0 -80 0 0 -80 0 -80 240 0 240 0 0 160
0 160 160 0 160 0 0 -80 0 -80 -80 0 -80 0 0 -80 0 -80 160 0 160 0 0 -80 0
-80 80 0 80 0 0 -160 0 -160 -80 0 -80 0 0 -240 0 -240 80 0 80 0 0 -160 0
-160 160 0 160 0 0 80 0 80 -80 0 -80 0 0 160 0 160 80 0 80 0 0 -80 0 -80 80
0 80 0 0 80 0 80 80 0 80 0 0 -80 0 -80 80 0 80 0 0 -160 0 -160 160 0 160 0
0 80 0 80 -80 0 -80 0 0 80 0 80 80 0 80 0 0 80 0 80 80 0 80 0 0 -240 0 -240
160 0 160 0 0 80 0 80 80 0 80 0 0 160 0 160 -80 0 -80 0 0 -160 0 -160 -80 0
-80 0 0 160 0 160 -80 0 -80 0 0 80 0 80 80 0 80 0 0 80 0 80 80 0 80 0 0 80
0 80 80 0 80 0 0 -160 0 -160 240 0 240 0 0 -160 0 -160 -80 0 -80 0 0 -80 0
-80 -80 0 -80 0 0 -80 0 -80 80 0 80 0 0 80 0 80 80 0 80 0 0 -80 0 -80 240 0
240 0 0 80 0 80 160 0 160 0 0 80 0 80 -80 0 -80 0 0 80 0 80 -240 0 -240 0 0
80 0 80 320 0 320 0 0 -80 0 -80 160 0 160 0 0 80 0 80 -80 0 -80 0 0 80 0 80
160 0 160 0 0 -160 0 -160 80 0 80 0 0 160 0 160 80 0 80 0 0 80 0 80 -80 0
-80 0 0 80 0 80 80 0 80 0 0 80 0 80 -160 0 -160 0 0 -80 0 -80 -80 0 -80 0 0
-80 0 -80 -80 0 -80 0 0 320 0 320 80 0 80 0 0 -80 0 -80 160 0 160 0 0 160 0
160 80 0 80 0 0 160 0 160 -80 0 -80 0 0 80 0 80 -80 0 -80 0 0 80 0 80 -80 0
-80 0 0 -80 0 -80 -80 0 -80 0 0 -80 0 -80 -80 0 -80 0 0 62 0 61 -21 -19
c-18 -16 -40 -19 -160 -22 l-139 -4 0 -39 0 -39 -80 0 -80 0 0 40 0 40 -160 0
-160 0 0 -40 0 -40 -80 0 -80 0 -1 68 c0 37 -3 61 -6 54 -9 -22 -60 -42 -108
-42 l-45 0 0 -40 0 -40 -80 0 -80 0 0 -80 0 -80 -80 0 -80 0 0 80 0 80 -80 0
-80 0 0 39 c0 36 -2 39 -36 44 -39 6 -84 41 -84 64 0 7 -9 13 -20 13 -16 0
-20 7 -20 30 l0 30 -80 0 -80 0 0 -30 0 -30 80 0 80 0 0 -160 0 -160 -80 0
-80 0 0 -80 0 -80 -80 0 -80 0 0 -80 0 -80 -80 0 -80 0 0 -160 0 -160 80 0 80
0 0 -240 0 -240 -80 0 -80 0 0 80 0 80 -160 0 -160 0 0 -80 0 -80 -80 0 -80 0
0 160 0 160 80 0 80 0 0 80 0 80 -80 0 -80 0 0 160 0 160 80 0 80 0 0 80 0 80
-80 0 -80 0 0 -80 0 -80 -80 0 -80 0 0 160 0 160 240 0 240 0 0 119 c0 115 -1
120 -22 126 -29 9 -68 44 -68 62 0 8 -13 13 -35 13 -32 0 -35 2 -35 30 0 30
-1 30 -54 30 l-54 0 -6 -44 c-11 -68 -41 -90 -132 -94 l-74 -4 0 -39 0 -39
-80 0 -80 0 0 40 0 40 -160 0 -160 0 0 -40 0 -40 -160 0 -160 0 0 80 0 80 110
0 110 0 0 30 c0 23 -4 30 -20 30 -14 0 -20 7 -20 24 0 21 -6 24 -48 30 -34 4
-56 14 -73 32 -23 24 -24 33 -27 180 -3 125 -6 154 -18 154 -12 0 -14 28 -14
160 0 132 2 160 14 160 8 0 18 10 21 23 12 37 47 67 87 73 34 6 38 10 38 35 0
26 4 29 30 29 25 0 30 4 30 25 0 43 27 83 65 96 19 7 35 19 35 26 0 10 21 13
80 13 l80 0 0 80 0 80 160 0 160 0 0 80 0 80 160 0 160 0 0 -80 0 -80 -80 0
-80 0 0 -80 0 -80 160 0 c131 0 160 -3 160 -14 0 -11 25 -15 119 -18 111 -3
121 -5 145 -27 16 -15 29 -41 32 -63 l7 -38 88 0 c72 0 89 -3 89 -15 0 -12 16
-15 80 -15 64 0 80 3 80 15 0 8 6 15 14 15 9 0 17 15 21 39 4 22 17 49 31 62
24 22 35 24 157 27 127 3 134 2 168 -21 l37 -25 21 22 c19 19 35 21 142 24
135 4 161 0 189 -28 20 -20 20 -20 20 20 l0 40 80 0 c64 0 80 -3 80 -15 0 -13
33 -15 240 -15 207 0 240 2 240 15 0 12 16 15 80 15 l80 0 0 80 0 80 80 0 80
0 0 80 0 80 -80 0 -80 0 0 80 0 80 80 0 80 0 0 80 0 80 -320 0 -320 0 0 80 0
80 80 0 80 0 0 160 0 160 -160 0 -160 0 0 -80 0 -80 -80 0 -80 0 0 -80 0 -80
-80 0 -80 0 0 80 0 80 -80 0 -80 0 0 -160 0 -160 -80 0 -80 0 0 -80 0 -80
-160 0 -160 0 0 80 0 80 80 0 80 0 0 80 0 80 80 0 80 0 0 80 0 80 -80 0 -80 0
0 80 0 80 80 0 80 0 0 160 0 160 80 0 80 0 0 -80 0 -80 80 0 80 0 0 -80 0 -80
80 0 80 0 0 80 0 80 240 0 240 0 0 80 0 80 -80 0 -80 0 0 80 0 80 -80 0 -80 0
0 80 0 80 160 0 160 0 0 80 0 80 -160 0 -160 0 0 -80 0 -80 -80 0 -80 0 0 80
0 80 -80 0 -80 0 0 -80 0 -80 -240 0 -240 0 0 -80 0 -80 -80 0 -80 0 0 160 0
160 -240 0 -240 0 0 -80 0 -80 -80 0 -80 0 0 80 0 80 -80 0 -80 0 0 -80z m480
-160 l0 -80 -80 0 -80 0 0 80 0 80 80 0 80 0 0 -80z m320 -240 l0 -160 80 0
80 0 0 -80 0 -80 -80 0 -80 0 0 -80 0 -80 80 0 80 0 0 -80 0 -80 -80 0 -80 0
0 -80 0 -80 -80 0 -80 0 0 80 0 80 -80 0 -80 0 0 80 0 80 -80 0 -80 0 0 -80 0
-80 -80 0 -80 0 0 80 0 80 80 0 80 0 0 80 0 80 240 0 240 0 0 80 0 80 -160 0
-160 0 0 80 0 80 80 0 80 0 0 80 0 80 80 0 80 0 0 -160z m640 80 l0 -80 80 0
80 0 0 80 0 80 80 0 80 0 0 -80 0 -80 -80 0 -80 0 0 -80 0 -80 -80 0 -80 0 0
80 0 80 -80 0 -80 0 0 80 0 80 80 0 80 0 0 -80z m-1440 -560 l0 -160 -80 0
-80 0 0 -80 0 -80 -80 0 -80 0 0 -160 0 -160 -80 0 -80 0 0 160 0 160 80 0 80
0 0 80 0 80 -80 0 -80 0 0 80 0 80 80 0 80 0 0 80 0 80 160 0 160 0 0 -160z
m1920 -80 l0 -80 -80 0 -80 0 0 80 0 80 80 0 80 0 0 -80z m-320 -320 l0 -80
80 0 80 0 0 -80 0 -80 80 0 80 0 0 80 0 80 80 0 80 0 0 -80 0 -80 -80 0 -80 0
0 -80 0 -80 80 0 80 0 0 -80 0 -80 -80 0 -80 0 0 80 0 80 -160 0 -160 0 0 160
0 160 -160 0 -160 0 0 -160 0 -160 80 0 80 0 0 -80 0 -80 -160 0 -160 0 0 80
0 80 -80 0 -80 0 0 80 0 80 80 0 80 0 0 80 0 80 80 0 80 0 0 80 0 80 160 0
160 0 0 -80z m-1120 -160 l0 -80 -160 0 -160 0 0 80 0 80 160 0 160 0 0 -80z
m-1760 -160 l0 -80 80 0 80 0 0 -80 0 -80 80 0 80 0 0 80 0 80 80 0 80 0 0
-80 0 -80 -80 0 -80 0 0 -80 0 -80 -240 0 -240 0 0 -160 0 -160 80 0 80 0 0
-80 0 -80 80 0 80 0 0 -80 0 -80 -80 0 -80 0 0 80 0 80 -80 0 -80 0 0 -80 0
-80 -80 0 -80 0 0 80 0 80 80 0 80 0 0 80 0 80 -160 0 -160 0 0 80 0 80 80 0
80 0 0 240 0 240 80 0 80 0 0 80 0 80 80 0 80 0 0 -80z m2080 0 l0 -80 -80 0
-80 0 0 -80 0 -80 80 0 80 0 0 -80 0 -80 -80 0 -80 0 0 80 0 80 -160 0 -160 0
0 80 0 80 160 0 160 0 0 80 0 80 80 0 80 0 0 -80z m-2080 -1360 l0 -160 80 0
80 0 0 -80 0 -80 -80 0 -80 0 0 -80 0 -80 -160 0 -160 0 0 160 0 160 -80 0
-80 0 0 160 0 160 240 0 240 0 0 -160z m800 -240 l0 -80 -160 0 -160 0 0 -80
0 -80 -80 0 -80 0 0 80 0 80 80 0 80 0 0 80 0 80 160 0 160 0 0 -80z m2080 0
l0 -80 160 0 160 0 0 80 0 80 80 0 80 0 0 -80 0 -80 320 0 320 0 0 -80 0 -80
-160 0 -160 0 0 -80 0 -80 80 0 80 0 0 -80 0 -80 -240 0 -240 0 0 80 0 80 -80
0 -80 0 0 -240 0 -240 -160 0 -160 0 0 -80 0 -80 160 0 160 0 0 -160 0 -160
-80 0 -80 0 0 80 0 80 -160 0 -160 0 0 320 0 320 -160 0 -160 0 0 -80 0 -80
-160 0 -160 0 0 -80 0 -80 80 0 80 0 0 -80 0 -80 -80 0 -80 0 0 80 0 80 -80 0
-80 0 0 80 0 80 -80 0 -80 0 0 160 0 160 160 0 160 0 0 -80 0 -80 160 0 160 0
0 160 0 160 -80 0 -80 0 0 80 0 80 80 0 80 0 0 -80 0 -80 160 0 160 0 0 160 0
160 80 0 80 0 0 -80z m1440 0 l0 -80 -80 0 -80 0 0 80 0 80 80 0 80 0 0 -80z
m0 -320 l0 -80 -80 0 -80 0 0 80 0 80 80 0 80 0 0 -80z m-3520 -160 l0 -80
-80 0 -80 0 0 80 0 80 80 0 80 0 0 -80z m320 -320 l0 -80 -80 0 -80 0 0 80 0
80 80 0 80 0 0 -80z m2720 -160 l0 -240 -240 0 -240 0 0 240 0 240 240 0 240
0 0 -240z m-1920 -400 l0 -160 -80 0 -80 0 0 -80 0 -80 -80 0 -80 0 0 160 0
160 80 0 80 0 0 80 0 80 80 0 80 0 0 -160z m-640 -80 l0 -80 -80 0 -80 0 0 80
0 80 80 0 80 0 0 -80z m2080 -320 l0 -80 -160 0 -160 0 0 80 0 80 160 0 160 0
0 -80z"/>
<path d="M2880 4560 l0 -80 80 0 80 0 0 80 0 80 -80 0 -80 0 0 -80z"/>
<path d="M1920 4560 l0 -80 80 0 80 0 0 80 0 80 -80 0 -80 0 0 -80z"/>
<path d="M800 3760 l0 -80 80 0 80 0 0 80 0 80 -80 0 -80 0 0 -80z"/>
<path d="M640 2480 l0 -80 80 0 80 0 0 80 0 80 -80 0 -80 0 0 -80z"/>
<path d="M4160 2160 l0 -80 80 0 80 0 0 80 0 80 -80 0 -80 0 0 -80z"/>
<path d="M3840 2000 l0 -80 -80 0 -80 0 0 -80 0 -80 80 0 80 0 0 -80 0 -80 80
0 80 0 0 240 0 240 -80 0 -80 0 0 -80z"/>
<path d="M4480 1360 l0 -80 80 0 80 0 0 80 0 80 -80 0 -80 0 0 -80z"/>
<path d="M4480 5040 l0 -560 560 0 560 0 0 560 0 560 -560 0 -560 0 0 -560z
m960 0 l0 -400 -400 0 -400 0 0 400 0 400 400 0 400 0 0 -400z"/>
<path d="M4800 5040 l0 -240 240 0 240 0 0 240 0 240 -240 0 -240 0 0 -240z"/>
<path d="M1280 4240 l0 -80 80 0 80 0 0 80 0 80 -80 0 -80 0 0 -80z"/>
<path d="M5120 4160 l0 -160 80 0 80 0 0 -80 0 -80 -160 0 -160 0 0 -80 0 -80
160 0 160 0 0 -80 0 -80 80 0 80 0 0 -80 0 -80 -80 0 -80 0 0 -80 0 -80 -80 0
-80 0 0 160 0 160 -80 0 -80 0 0 -37 c0 -24 8 -45 23 -61 19 -20 22 -36 25
-123 l4 -99 54 0 54 0 0 -160 0 -160 80 0 80 0 0 80 0 80 80 0 80 0 0 -160 0
-160 80 0 80 0 0 240 0 240 -80 0 -80 0 0 80 0 80 80 0 80 0 0 80 0 80 -80 0
-80 0 0 80 0 80 80 0 80 0 0 80 0 80 -80 0 -80 0 0 80 0 80 80 0 80 0 0 160 0
160 -240 0 -240 0 0 -160z"/>
<path d="M1760 3665 c0 -12 16 -15 80 -15 64 0 80 3 80 15 0 12 -16 15 -80 15
-64 0 -80 -3 -80 -15z"/>
<path d="M1440 3455 l0 -95 -95 0 -95 0 0 -290 0 -290 95 0 95 0 0 -100 0
-100 290 0 289 0 3 98 3 97 98 3 97 3 -2 287 -3 287 -97 3 -98 3 0 94 0 95
-290 0 -290 0 0 -95z m580 -385 l0 -290 -290 0 -290 0 0 290 0 290 290 0 290
0 0 -290z"/>
<path d="M2400 3065 l0 -485 100 0 100 0 0 290 0 290 95 0 95 0 0 -95 0 -95
95 0 95 0 0 95 0 95 100 0 100 0 0 -290 0 -290 95 0 95 0 0 485 0 485 -95 0
-95 0 0 -95 0 -94 -97 -3 -98 -3 -3 -97 -3 -98 -94 0 -95 0 0 100 0 100 -95 0
-95 0 0 95 0 95 -100 0 -100 0 0 -485z"/>
<path d="M3560 3065 l0 -485 95 0 95 0 0 485 0 485 -95 0 -95 0 0 -485z"/>
<path d="M3940 3065 l0 -485 385 0 384 0 3 98 3 97 98 3 97 3 0 289 0 290
-100 0 -100 0 0 95 0 95 -385 0 -385 0 0 -485z m770 5 l0 -290 -290 0 -290 0
0 283 c0 156 3 287 7 290 3 4 134 7 290 7 l283 0 0 -290z"/>
<path d="M2560 2320 l0 -80 80 0 80 0 0 80 0 80 -80 0 -80 0 0 -80z"/>
<path d="M320 880 l0 -560 560 0 560 0 0 560 0 560 -560 0 -560 0 0 -560z
m960 0 l0 -400 -400 0 -400 0 0 400 0 400 400 0 400 0 0 -400z"/>
<path d="M640 880 l0 -240 240 0 240 0 0 240 0 240 -240 0 -240 0 0 -240z"/>
<path d="M4960 560 l0 -80 80 0 80 0 0 -80 0 -80 160 0 160 0 0 80 0 80 -160
0 -160 0 0 80 0 80 -80 0 -80 0 0 -80z"/>
<path d="M2240 400 l0 -80 80 0 80 0 0 80 0 80 -80 0 -80 0 0 -80z"/>
</g>
</svg>
